# xmcd CD database file
#
# Track frame offsets:
#	150
#	48587
#	90084
#	122788
#	158815
#	190945
#	252644
#
# Disc length: 4458 seconds
#
# Revision: 0
# Processed by: cddbd v1.5.1PL0 Copyright (c) Steve Scherf et al.
# Submitted via: CDex 1.51
#
DISCID=57116807
DTITLE=John Coltrane - Blue Train
DYEAR=1900
DGENRE=Jazz
TTITLE0=Blue Train
TTITLE1=Moment's Notice
TTITLE2=Locomotion
TTITLE3=I'm Old Fashioned
TTITLE4=Lazy Bird
TTITLE5=Blue Train
TTITLE6=Lazy Bird
EXTD=
EXTT0=
EXTT1=
EXTT2=
EXTT3=
EXTT4=
EXTT5=
EXTT6=
PLAYORDER=
